<?xml version="1.0" standalone="no"?>
<!DOCTYPE svg PUBLIC "-//W3C//DTD SVG 20010904//EN"
 "http://www.w3.org/TR/2001/REC-SVG-20010904/DTD/svg10.dtd">
<svg version="1.0" xmlns="http://www.w3.org/2000/svg"
 width="100.000000pt" height="100.000000pt" viewBox="0 0 100.000000 100.000000"
 preserveAspectRatio="xMidYMid meet">
<metadata>
Created by potrace 1.16, written by Peter Selinger 2001-2019
</metadata>
<g transform="translate(0.000000,100.000000) scale(0.100000,-0.100000)"
fill="#000000" stroke="none">
<path d="M408 876 c-93 -36 -132 -92 -133 -192 0 -50 5 -69 30 -110 28 -45 41
-54 150 -109 101 -50 123 -66 138 -95 20 -40 15 -74 -15 -107 -44 -47 -138
-39 -202 17 -58 51 -116 30 -116 -41 0 -74 98 -128 230 -129 170 0 250 72 250
225 0 127 -38 175 -195 250 -124 59 -147 83 -126 133 23 55 109 68 202 32 46
-19 54 -19 74 -6 27 18 39 59 25 86 -6 11 -25 27 -43 37 -43 23 -217 29 -269
9z m254 -36 c34 -16 40 -32 22 -58 -14 -21 -15 -21 -57 -2 -58 27 -151 27
-195 0 -38 -23 -56 -62 -48 -106 8 -42 38 -67 131 -109 156 -71 196 -116 196
-224 1 -133 -76 -203 -222 -202 -106 0 -199 48 -199 102 0 42 23 46 67 11 73
-57 179 -67 237 -21 52 41 53 133 4 187 -13 14 -68 46 -123 72 -110 51 -148
86 -165 151 -20 73 12 154 76 191 60 35 208 39 276 8z"/>
</g>
</svg>
